<svg width="16" height="16" viewBox="0 0 16 16" fill="none" xmlns="http://www.w3.org/2000/svg">
<path d="M10.1648 10.74L11.2848 9.62C11.4357 9.47103 11.6265 9.36905 11.8342 9.32644C12.0419 9.28384 12.2575 9.30245 12.4548 9.38001L13.8198 9.925C14.0192 10.0059 14.1902 10.1441 14.3112 10.3221C14.4322 10.5 14.4979 10.7098 14.4998 10.925V13.425C14.4987 13.5714 14.4679 13.716 14.4094 13.8502C14.3508 13.9844 14.2657 14.1054 14.1592 14.2058C14.0527 14.3062 13.927 14.3841 13.7896 14.4346C13.6522 14.4852 13.506 14.5074 13.3598 14.5C3.79482 13.905 1.86482 5.805 1.49982 2.70501C1.48288 2.55277 1.49836 2.39868 1.54525 2.25286C1.59213 2.10704 1.66936 1.9728 1.77186 1.85897C1.87435 1.74514 1.99978 1.65431 2.1399 1.59244C2.28002 1.53057 2.43165 1.49907 2.58482 1.50001H4.99982C5.21533 1.50064 5.42571 1.56574 5.60392 1.68692C5.78213 1.8081 5.92001 1.97983 5.99982 2.18001L6.54482 3.54501C6.62495 3.74154 6.64539 3.95733 6.6036 4.16541C6.5618 4.3735 6.45962 4.56465 6.30982 4.71501L5.18982 5.83501C5.18982 5.83501 5.83482 10.2 10.1648 10.74Z" fill="white"/>
</svg>
